<?xml version="1.0" encoding="utf-8"?>
<svg width="800px" height="800px" viewBox="0 0 24 24" fill="none" xmlns="http://www.w3.org/2000/svg">
<defs>
  <linearGradient id="chemGradient" x1="0%" y1="0%" x2="100%" y2="100%">
    <stop offset="0%" style="stop-color:#784F74;stop-opacity:1" />
    <stop offset="100%" style="stop-color:#E8967F;stop-opacity:1" />
  </linearGradient>
</defs>
<path d="M11 7L13 10L11 13H8L6 10L8 7H11Z" stroke="url(#chemGradient)" stroke-width="2" stroke-linecap="round" stroke-linejoin="round"/>
<path d="M16 4L18 7L16 10H13L11 7L13 4H16Z" stroke="url(#chemGradient)" stroke-width="2" stroke-linecap="round" stroke-linejoin="round"/>
<path d="M16 16L18 19" stroke="url(#chemGradient)" stroke-width="2" stroke-linecap="round" stroke-linejoin="round"/>
<path d="M5 4L8 7" stroke="url(#chemGradient)" stroke-width="2" stroke-linecap="round" stroke-linejoin="round"/>
<path d="M8 13L6 15" stroke="url(#chemGradient)" stroke-width="2" stroke-linecap="round" stroke-linejoin="round"/>
<path d="M13 16L11 18" stroke="url(#chemGradient)" stroke-width="2" stroke-linecap="round" stroke-linejoin="round"/>
<path d="M6 10H4" stroke="url(#chemGradient)" stroke-width="2" stroke-linecap="round" stroke-linejoin="round"/>
<path d="M18 13H21" stroke="url(#chemGradient)" stroke-width="2" stroke-linecap="round" stroke-linejoin="round"/>
<path d="M16 10L18 13L16 16H13L11 13L13 10H16Z" stroke="url(#chemGradient)" stroke-width="2" stroke-linecap="round" stroke-linejoin="round"/>
<circle cx="9" cy="20" r="1" fill="url(#chemGradient)"/>
<circle cx="4" cy="17" r="1" fill="url(#chemGradient)"/>
<circle cx="21" cy="7" r="1" fill="url(#chemGradient)"/>
</svg>
